<?xml version="1.0" encoding="UTF-8" standalone="no"?>
<!-- Created with Inkscape (http://www.inkscape.org/) -->

<svg
   xmlns:dc="http://purl.org/dc/elements/1.1/"
   xmlns:cc="http://creativecommons.org/ns#"
   xmlns:rdf="http://www.w3.org/1999/02/22-rdf-syntax-ns#"
   xmlns:svg="http://www.w3.org/2000/svg"
   xmlns="http://www.w3.org/2000/svg"
   xmlns:sodipodi="http://sodipodi.sourceforge.net/DTD/sodipodi-0.dtd"
   xmlns:inkscape="http://www.inkscape.org/namespaces/inkscape"
   width="128"
   height="128"
   id="svg3983"
   version="1.1"
   inkscape:version="0.48.5 r10040"
   inkscape:export-filename="/home/mabu/programiranje/forotp/OpenTripPlanner/otp-leaflet-client/src/main/webapp/images/road_works.png"
   inkscape:export-xdpi="15.46875"
   inkscape:export-ydpi="15.46875"
   sodipodi:docname="New document 37">
  <defs
     id="defs3985" />
  <sodipodi:namedview
     id="base"
     pagecolor="#ffffff"
     bordercolor="#666666"
     borderopacity="1.0"
     inkscape:pageopacity="0.0"
     inkscape:pageshadow="2"
     inkscape:zoom="1.4"
     inkscape:cx="103.95601"
     inkscape:cy="40.614042"
     inkscape:document-units="px"
     inkscape:current-layer="layer1"
     showgrid="false"
     fit-margin-top="0"
     fit-margin-left="0"
     fit-margin-right="0"
     fit-margin-bottom="0"
     inkscape:window-width="1278"
     inkscape:window-height="1006"
     inkscape:window-x="1280"
     inkscape:window-y="16"
     inkscape:window-maximized="0" />
  <metadata
     id="metadata3988">
    <rdf:RDF>
      <cc:Work
         rdf:about="">
        <dc:format>image/svg+xml</dc:format>
        <dc:type
           rdf:resource="http://purl.org/dc/dcmitype/StillImage" />
        <dc:title></dc:title>
      </cc:Work>
    </rdf:RDF>
  </metadata>
  <g
     inkscape:label="Color"
     inkscape:groupmode="layer"
     id="layer1"
     transform="translate(-316.36311,-543.149)"
     sodipodi:insensitive="true"
     style="display:inline">
    <g
       transform="translate(156.29711,413.14058)"
       id="g3966">
      <path
         id="path4016"
         d="M 317.26,580.92 H 34.74 L 105.37,458.58 176,336.25 246.63,458.58 z"
         transform="matrix(0.40725,0,0,0.40725,152.39,15.32)"
         inkscape:connector-curvature="0"
         style="fill:#ffffff;stroke:#dd0000;stroke-width:30;stroke-linejoin:round" />
      <path
         transform="translate(-240,-460.36)"
         id="rect3628"
         d="m 472.33,652.72 c -2.4453,0 -4.4292,2.0042 -4.4292,4.4752 0,0.52302 0.09,1.0226 0.25331,1.4892 -0.46093,0.19297 -0.97122,0.47082 -1.5122,0.85973 l -0.36846,-0.32241 c -0.14157,-0.11383 -0.28265,-0.22342 -0.42219,-0.33007 -3.6157,-2.7634 -6.5786,-3.147 -9.9484,-2.5946 -5.0572,1.122 -5.1283,6.292 -6.471,10.432 -2.0876,2.7265 -1.1538,3.8574 0.31472,4.0991 0.58361,0.11009 1.0006,0.0529 1.2973,-0.13048 l 0.9979,0.55269 c -0.63429,1.3297 -1.1848,2.6799 -1.5813,4.053 -1.3594,12.536 -8.3382,13.395 -12.666,19.736 1.1583,2.2338 2.3191,4.5243 4.2987,6.5939 l 2.0956,-0.0231 c -0.81519,-1.3347 -1.7092,-2.6268 -2.0495,-4.1989 4.929,-5.9202 8.8173,-3.9997 14.784,-17.763 6.4019,5.2474 4.5579,14.62 6.8318,21.931 l 8.4822,0.0384 c -0.67181,-1.0745 -1.825,-1.8117 -3.8995,-1.896 -0.81153,-6.6816 -0.71314,-13.559 -2.5562,-20.02 l 5.5192,3.3775 c 0.17968,1.7114 2.0349,2.4856 3.0782,1.8884 l 4.3524,2.6636 c 0.41439,0.25377 0.62772,0.43334 0.60643,0.46824 -2.1624,3.5433 -3.387,8.1588 -3.9686,13.502 h 26.406 l -11.491,-20.879 c -4.3172,0.74527 -7.5151,2.7592 -9.8409,5.7725 -0.0215,0.0279 -0.3971,0.60445 -0.73692,0.39148 l -4.6594,-2.917 c 0.0311,-0.16993 0.0436,-0.35937 0.0308,-0.56803 -0.60757,-2.3568 -1.7058,-5.5837 -3.2547,-8.3747 0.47307,-2.9376 1.2174,-5.7835 0.4529,-9.3573 -0.23486,-0.97784 -1.0376,-2.0501 -2.2645,-3.1933 l -0.39916,-0.34543 c 0.28955,-0.33113 0.52081,-0.64859 0.7062,-0.95184 0.60383,0.31192 1.2865,0.49127 2.0112,0.49127 2.4453,0 4.4292,-2.0042 4.4292,-4.4752 0,-2.471 -1.9839,-4.4752 -4.4292,-4.4752 z m -15.644,7.3692 c 0.90947,0.007 1.6419,0.33403 1.4585,1.0363 -1.8292,2.8415 -3.9665,5.9223 -5.6267,9.1577 l -0.88275,-0.60643 c 0.10225,-0.63837 -0.0142,-1.4447 -0.17656,-2.1954 1.1704,-2.3645 1.0045,-5.2493 3.5541,-7.0775 0.51342,-0.21046 1.1277,-0.31916 1.6734,-0.31472 z m 11.107,10.002 c 0.55641,0.0656 0.2731,3.8604 0.82901,5.5652 1.0613,1.8605 2.1661,3.7201 3.0705,5.5806 -0.0834,0.17144 -0.15109,0.33705 -0.20726,0.49895 l -6.8625,-4.2987 c -0.3705,-0.94508 -1.3605,-2.2946 -0.82606,-3.4232 0.60738,-1.2827 1.8025,-2.6372 3.8735,-3.8845 0.045,-0.0305 0.0857,-0.0427 0.12283,-0.0384 z"
         inkscape:connector-curvature="0" />
    </g>
  </g>
  <g
     transform="translate(-316.36311,-543.149)"
     id="g4116"
     inkscape:groupmode="layer"
     inkscape:label="Gray"
     sodipodi:insensitive="true"
     style="display:none">
    <path
       id="path4120"
       d="M 317.26,580.92 H 34.74 L 105.37,458.58 176,336.25 246.63,458.58 z"
       transform="matrix(0.40725,0,0,0.40725,308.68711,428.46058)"
       inkscape:connector-curvature="0"
       style="fill:#ffffff;stroke:#6f6f6f;stroke-width:30;stroke-linejoin:round;stroke-opacity:1" />
    <path
       transform="translate(-83.70289,-47.21942)"
       id="path4122"
       d="m 472.33,652.72 c -2.4453,0 -4.4292,2.0042 -4.4292,4.4752 0,0.52302 0.09,1.0226 0.25331,1.4892 -0.46093,0.19297 -0.97122,0.47082 -1.5122,0.85973 l -0.36846,-0.32241 c -0.14157,-0.11383 -0.28265,-0.22342 -0.42219,-0.33007 -3.6157,-2.7634 -6.5786,-3.147 -9.9484,-2.5946 -5.0572,1.122 -5.1283,6.292 -6.471,10.432 -2.0876,2.7265 -1.1538,3.8574 0.31472,4.0991 0.58361,0.11009 1.0006,0.0529 1.2973,-0.13048 l 0.9979,0.55269 c -0.63429,1.3297 -1.1848,2.6799 -1.5813,4.053 -1.3594,12.536 -8.3382,13.395 -12.666,19.736 1.1583,2.2338 2.3191,4.5243 4.2987,6.5939 l 2.0956,-0.0231 c -0.81519,-1.3347 -1.7092,-2.6268 -2.0495,-4.1989 4.929,-5.9202 8.8173,-3.9997 14.784,-17.763 6.4019,5.2474 4.5579,14.62 6.8318,21.931 l 8.4822,0.0384 c -0.67181,-1.0745 -1.825,-1.8117 -3.8995,-1.896 -0.81153,-6.6816 -0.71314,-13.559 -2.5562,-20.02 l 5.5192,3.3775 c 0.17968,1.7114 2.0349,2.4856 3.0782,1.8884 l 4.3524,2.6636 c 0.41439,0.25377 0.62772,0.43334 0.60643,0.46824 -2.1624,3.5433 -3.387,8.1588 -3.9686,13.502 h 26.406 l -11.491,-20.879 c -4.3172,0.74527 -7.5151,2.7592 -9.8409,5.7725 -0.0215,0.0279 -0.3971,0.60445 -0.73692,0.39148 l -4.6594,-2.917 c 0.0311,-0.16993 0.0436,-0.35937 0.0308,-0.56803 -0.60757,-2.3568 -1.7058,-5.5837 -3.2547,-8.3747 0.47307,-2.9376 1.2174,-5.7835 0.4529,-9.3573 -0.23486,-0.97784 -1.0376,-2.0501 -2.2645,-3.1933 l -0.39916,-0.34543 c 0.28955,-0.33113 0.52081,-0.64859 0.7062,-0.95184 0.60383,0.31192 1.2865,0.49127 2.0112,0.49127 2.4453,0 4.4292,-2.0042 4.4292,-4.4752 0,-2.471 -1.9839,-4.4752 -4.4292,-4.4752 z m -15.644,7.3692 c 0.90947,0.007 1.6419,0.33403 1.4585,1.0363 -1.8292,2.8415 -3.9665,5.9223 -5.6267,9.1577 l -0.88275,-0.60643 c 0.10225,-0.63837 -0.0142,-1.4447 -0.17656,-2.1954 1.1704,-2.3645 1.0045,-5.2493 3.5541,-7.0775 0.51342,-0.21046 1.1277,-0.31916 1.6734,-0.31472 z m 11.107,10.002 c 0.55641,0.0656 0.2731,3.8604 0.82901,5.5652 1.0613,1.8605 2.1661,3.7201 3.0705,5.5806 -0.0834,0.17144 -0.15109,0.33705 -0.20726,0.49895 l -6.8625,-4.2987 c -0.3705,-0.94508 -1.3605,-2.2946 -0.82606,-3.4232 0.60738,-1.2827 1.8025,-2.6372 3.8735,-3.8845 0.045,-0.0305 0.0857,-0.0427 0.12283,-0.0384 z"
       inkscape:connector-curvature="0" />
  </g>
</svg>
